<svg width="55" height="55" viewBox="0 0 55 55" fill="none" xmlns="http://www.w3.org/2000/svg">
<path d="M47.7853 28.334C48.0346 26.9152 47.3966 25.4532 46.172 24.6537C45.2481 24.0488 44.0601 23.8759 43.0042 24.2072C42.8649 24.2504 42.7329 24.3008 42.6009 24.3584C41.9849 24.6393 41.4643 25.0786 40.907 25.446C39.433 26.4254 37.4311 26.3462 35.9572 25.3811C34.6959 24.5529 33.9186 23.1341 33.904 21.6433C33.8966 20.3757 34.5859 19.4034 35.1652 18.3664C35.3486 18.0423 35.5172 17.711 35.6492 17.3581C36.1699 15.9969 36.1479 14.4268 35.5392 13.0945C35.0772 12.079 34.3146 11.2219 33.3467 10.6458C29.9735 8.63641 25.6984 10.4873 24.7304 14.1748C23.2125 19.9292 26.3657 26.375 31.2568 29.5799C33.6473 31.1428 36.4485 32.0358 39.3084 32.1366C40.6576 32.1799 42.0216 32.0646 43.3415 31.7621C43.6935 31.6829 44.0455 31.5893 44.3975 31.4813C44.8668 31.3372 45.3288 31.1644 45.7541 30.9411C46.766 30.4082 47.5653 29.6015 47.7853 28.334ZM45.5414 30.1561C44.5955 30.6962 43.3635 30.8979 42.2782 30.9267C40.5916 30.9699 38.8757 30.5162 37.3651 29.5295C35.0406 28.0027 33.728 25.5468 33.6033 22.9973C33.8086 24.0272 34.3513 24.985 35.1872 25.7124C35.3852 25.8997 35.6052 26.0653 35.8399 26.2238C36.9472 26.9512 38.3404 27.2032 39.6457 26.9368C40.995 26.6631 41.7209 25.7196 42.8942 25.1507C43.9648 24.6249 44.9548 24.8122 45.6881 25.3595C47.1473 26.4614 47.5653 28.9894 45.5414 30.1561Z" fill="#4FBFA3"/>
<path d="M14.3757 12.8706C13.0044 13.3676 12.0291 14.6423 11.9338 16.0827C11.8604 17.1703 12.3078 18.265 13.1217 18.9996C13.2244 19.0932 13.3417 19.1796 13.459 19.266C14.009 19.6478 14.6616 19.871 15.2703 20.1663C16.8689 20.9297 17.8002 22.6726 17.6902 24.4083C17.5948 25.8991 16.7295 27.2675 15.4169 28.0237C14.3097 28.6647 13.0997 28.5639 11.8971 28.5927C11.5158 28.5999 11.1418 28.6215 10.7678 28.6863C9.30857 28.924 7.9373 29.7306 7.06468 30.9117C6.39738 31.812 6.0234 32.8851 6.0014 34.0014C5.92073 37.8761 9.68255 40.5841 13.4224 39.5686C19.2594 37.9769 23.3586 32.0713 23.7399 26.3096C23.9232 23.508 23.3146 20.6776 21.9726 18.2001C21.342 17.0262 20.55 15.9315 19.6261 14.9592C19.3768 14.7 19.1201 14.4479 18.8561 14.203C18.4895 13.8717 18.1081 13.5692 17.7048 13.3244C16.7075 12.6978 15.6003 12.4241 14.3757 12.8706ZM17.1035 13.8717C18.0568 14.4047 18.8488 15.3481 19.4134 16.2628C20.2934 17.6744 20.7554 19.3597 20.638 21.1458C20.4547 23.8826 18.9441 26.2304 16.7589 27.606C17.5582 26.9146 18.1375 25.9783 18.3648 24.898C18.4308 24.6388 18.4675 24.3651 18.4895 24.0842C18.5775 22.7734 18.1008 21.4627 17.2135 20.4904C16.2969 19.4749 15.109 19.3381 14.009 18.6251C13.0117 17.9769 12.6817 17.0406 12.7991 16.1476C13.0337 14.3471 15.065 12.7266 17.1035 13.8717Z" fill="#4FBFA3"/>
<path d="M17.441 49.0251C18.5703 49.9469 20.1762 50.1342 21.4962 49.5004C22.4935 49.0179 23.2341 48.0888 23.4688 47.0301C23.4981 46.8933 23.5201 46.7564 23.5348 46.6124C23.5934 45.9498 23.4688 45.2872 23.4248 44.6246C23.3001 42.8817 24.3707 41.2181 25.9546 40.4475C27.3186 39.7849 28.9538 39.8353 30.2738 40.5771C31.3957 41.2037 31.909 42.2768 32.5323 43.2851C32.7303 43.6019 32.9356 43.9116 33.1776 44.1997C34.1236 45.3232 35.5095 46.0866 36.9908 46.2379C38.1127 46.3531 39.2567 46.1299 40.2466 45.5969C43.7004 43.7316 44.2138 39.1727 41.4492 36.5007C37.1301 32.3308 29.8704 31.7978 24.598 34.3473C22.0315 35.5933 19.8463 37.5234 18.3283 39.9073C17.6097 41.0308 17.0377 42.2552 16.6417 43.5227C16.5391 43.8684 16.4438 44.2141 16.3631 44.5598C16.2531 45.0351 16.1798 45.5105 16.1651 45.9786C16.1284 47.1165 16.4364 48.204 17.441 49.0251ZM16.9644 46.2019C16.9571 45.1216 17.397 43.9764 17.9177 43.0474C18.7243 41.5926 19.9783 40.3538 21.6062 39.5688C24.1141 38.3517 26.9373 38.4669 29.2471 39.6336C28.2352 39.2951 27.1206 39.2735 26.0573 39.6264C25.7933 39.7056 25.5367 39.8065 25.28 39.9289C24.0847 40.5123 23.1681 41.571 22.7428 42.8097C22.3101 44.0989 22.7795 45.1792 22.6988 46.4684C22.6255 47.6423 21.9655 48.3913 21.1149 48.737C19.4136 49.4212 16.9791 48.5065 16.9644 46.2019Z" fill="#4FBFA3"/>
<path d="M43.421 14.4564V12.7207H44.1763C44.2863 12.7207 44.3816 12.7423 44.4696 12.7783C44.5503 12.8143 44.6163 12.8719 44.6603 12.9368C44.7043 13.0088 44.7263 13.088 44.7263 13.1816V13.2104C44.7263 13.3185 44.697 13.4049 44.6456 13.4697C44.5943 13.5345 44.5283 13.5849 44.455 13.6138V13.657C44.521 13.657 44.5723 13.6858 44.609 13.7218C44.6456 13.765 44.6676 13.8154 44.6676 13.8874V14.4636H44.367V13.9306C44.367 13.8874 44.3523 13.8586 44.3303 13.8298C44.3083 13.801 44.2716 13.7938 44.2203 13.7938H43.7217V14.4636H43.421V14.4564ZM43.729 13.5201H44.147C44.235 13.5201 44.301 13.4985 44.3523 13.4553C44.4036 13.4121 44.4256 13.3473 44.4256 13.2753V13.2537C44.4256 13.1744 44.4036 13.1168 44.3523 13.0664C44.301 13.0232 44.235 13.0016 44.147 13.0016H43.729V13.5201Z" fill="#4FBFA3"/>
<path d="M43.9711 15.4506C42.9298 15.4506 42.0792 14.6152 42.0792 13.5925C42.0792 12.5698 42.9298 11.7344 43.9711 11.7344C45.0124 11.7344 45.863 12.5698 45.863 13.5925C45.8704 14.6152 45.0197 15.4506 43.9711 15.4506ZM43.9711 12.1449C43.1572 12.1449 42.4972 12.7931 42.4972 13.5925C42.4972 14.3919 43.1572 15.0401 43.9711 15.0401C44.7851 15.0401 45.4451 14.3919 45.4451 13.5925C45.4451 12.7931 44.7851 12.1449 43.9711 12.1449Z" fill="#4FBFA3"/>
</svg>
