<svg width="25" height="25" viewBox="0 0 25 25" fill="none" xmlns="http://www.w3.org/2000/svg">
<path d="M12.7072 19.8886L12.5991 19.3093L12.0108 19.2772C7.19187 19.014 3.5 15.4448 3.5 11.2143C3.5 6.81912 7.48499 3.125 12.5714 3.125C17.6579 3.125 21.6429 6.81912 21.6429 11.2143C21.6429 14.2252 19.7875 16.8893 16.9715 18.2866L16.8405 18.3517L16.7435 18.4612C15.6557 19.6891 14.5106 20.6674 13.6354 21.3394C13.4318 21.4957 13.2434 21.635 13.0742 21.7567C12.9458 21.1352 12.8235 20.5125 12.7072 19.8886Z" stroke="#93A2B7" stroke-width="1.5"/>
<circle cx="8.5" cy="11.5" r="1" fill="#93A2B7"/>
<circle cx="12.5" cy="11.5" r="1" fill="#93A2B7"/>
<circle cx="16.5" cy="11.5" r="1" fill="#93A2B7"/>
</svg>
