<svg width="24" height="24" viewBox="0 0 24 24" fill="none" xmlns="http://www.w3.org/2000/svg">
<path d="M4.23502 20H4.29968C4.52485 19.9849 4.73898 19.8932 4.90893 19.7389C5.07888 19.5847 5.19518 19.3765 5.23985 19.1467C5.27988 18.9579 6.15333 15.0848 11.4197 13.8133V14.6667C11.4197 15.0629 11.5259 15.4512 11.7263 15.7882C11.9267 16.1252 12.2135 16.3976 12.5545 16.5748C12.8954 16.752 13.2772 16.827 13.6568 16.7914C14.0365 16.7558 14.3992 16.611 14.7041 16.3733L20.1789 12.1067C20.4338 11.908 20.6408 11.6503 20.7833 11.3541C20.9258 11.0578 21 10.7312 21 10.4C21 10.0688 20.9258 9.74217 20.7833 9.44594C20.6408 9.14972 20.4338 8.89205 20.1789 8.69333L14.7041 4.42667C14.3992 4.18896 14.0365 4.0442 13.6568 4.00862C13.2772 3.97304 12.8954 4.04804 12.5545 4.22522C12.2135 4.4024 11.9267 4.67476 11.7263 5.01177C11.5259 5.34879 11.4197 5.73715 11.4197 6.13333V7.24693C10.1235 7.34217 8.86366 7.73491 7.73099 8.39687C6.59833 9.05884 5.62098 9.97357 4.86932 11.0752C4.04212 12.2365 3.46957 13.5719 3.1919 14.9877C2.91422 16.4035 2.93815 17.8653 3.262 19.2704C3.33005 19.4827 3.46062 19.6674 3.63524 19.7983C3.80986 19.9293 4.01969 19.9998 4.23502 20ZM12.4461 11.4667C12.3973 11.4665 12.3486 11.4701 12.3004 11.4773C9.67549 11.7506 7.21939 12.9482 5.33941 14.8715C5.59756 13.9575 6.0014 13.0951 6.53412 12.32C7.20478 11.3526 8.09598 10.5734 9.12781 10.0521C10.1596 9.53085 11.2998 9.28387 12.4461 9.33333C12.7183 9.33333 12.9794 9.22095 13.1719 9.02091C13.3643 8.82088 13.4725 8.54956 13.4725 8.26667V6.13333L18.9472 10.4L13.4725 14.6667V12.5333C13.4725 12.2504 13.3643 11.9791 13.1719 11.7791C12.9794 11.579 12.7183 11.4667 12.4461 11.4667Z" fill="white"/>
</svg>
