<svg width="25" height="25" viewBox="0 0 25 25" fill="none" xmlns="http://www.w3.org/2000/svg">
<path d="M13.51 3.41995L19.41 6.03995C21.11 6.78995 21.11 8.02995 19.41 8.77995L13.51 11.3999C12.84 11.6999 11.74 11.6999 11.07 11.3999L5.17 8.77995C3.47 8.02995 3.47 6.78995 5.17 6.03995L11.07 3.41995C11.74 3.11995 12.84 3.11995 13.51 3.41995Z" stroke="#93A2B7" stroke-width="1.5" stroke-linecap="round" stroke-linejoin="round"/>
<path d="M3.5 11.5C3.5 12.34 4.13 13.31 4.9 13.65L11.69 16.67C12.21 16.9 12.8 16.9 13.31 16.67L20.1 13.65C20.87 13.31 21.5 12.34 21.5 11.5" stroke="#93A2B7" stroke-width="1.5" stroke-linecap="round" stroke-linejoin="round"/>
<path d="M3.5 16.5C3.5 17.43 4.05 18.27 4.9 18.65L11.69 21.67C12.21 21.9 12.8 21.9 13.31 21.67L20.1 18.65C20.95 18.27 21.5 17.43 21.5 16.5" stroke="#93A2B7" stroke-width="1.5" stroke-linecap="round" stroke-linejoin="round"/>
</svg>
