<svg width="16" height="16" viewBox="0 0 16 16" fill="none" xmlns="http://www.w3.org/2000/svg">
<path d="M2.33333 13.6666C2.88667 14.22 3.78 14.22 4.33333 13.6666L13 4.99996C13.5533 4.44663 13.5533 3.55329 13 2.99996C12.4467 2.44663 11.5533 2.44663 11 2.99996L2.33333 11.6666C1.78 12.22 1.78 13.1133 2.33333 13.6666Z" stroke="white" stroke-linecap="round" stroke-linejoin="round"/>
<path d="M12.0067 5.99329L10.0067 3.99329" stroke="white" stroke-width="1.5" stroke-linecap="round" stroke-linejoin="round"/>
<path d="M5.66667 1.62671L6.66667 1.33337L6.37334 2.33337L6.66667 3.33337L5.66667 3.04004L4.66667 3.33337L4.96001 2.33337L4.66667 1.33337L5.66667 1.62671Z" stroke="white" stroke-linecap="round" stroke-linejoin="round"/>
<path d="M3 5.62671L4 5.33337L3.70667 6.33337L4 7.33337L3 7.04004L2 7.33337L2.29333 6.33337L2 5.33337L3 5.62671Z" stroke="white" stroke-linecap="round" stroke-linejoin="round"/>
<path d="M13 8.95996L14 8.66663L13.7067 9.66663L14 10.6666L13 10.3733L12 10.6666L12.2933 9.66663L12 8.66663L13 8.95996Z" stroke="white" stroke-linecap="round" stroke-linejoin="round"/>
</svg>
