<svg width="16" height="16" viewBox="0 0 16 16" fill="none" xmlns="http://www.w3.org/2000/svg">
<path d="M4.18667 14.6667C5.33542 14.6667 6.26667 13.7355 6.26667 12.5867C6.26667 11.438 5.33542 10.5067 4.18667 10.5067C3.03791 10.5067 2.10667 11.438 2.10667 12.5867C2.10667 13.7355 3.03791 14.6667 4.18667 14.6667Z" stroke="white" stroke-linecap="round" stroke-linejoin="round"/>
<path d="M13.8933 11.1999V3.06661C13.8933 1.33327 12.8067 1.09327 11.7067 1.39327L7.54667 2.52661C6.78667 2.73327 6.26667 3.33327 6.26667 4.19994V5.64661V6.61994V12.5799" stroke="white" stroke-linecap="round" stroke-linejoin="round"/>
<path d="M11.8133 13.28C12.9621 13.28 13.8933 12.3487 13.8933 11.2C13.8933 10.0512 12.9621 9.12 11.8133 9.12C10.6646 9.12 9.73333 10.0512 9.73333 11.2C9.73333 12.3487 10.6646 13.28 11.8133 13.28Z" stroke="white" stroke-linecap="round" stroke-linejoin="round"/>
<path d="M6.26667 6.34672L13.8933 4.26672" stroke="white" stroke-linecap="round" stroke-linejoin="round"/>
</svg>
