<svg width="25" height="25" viewBox="0 0 25 25" fill="none" xmlns="http://www.w3.org/2000/svg">
<path d="M12.52 3.41003C9.21 3.41003 6.52 6.10003 6.52 9.41003V12.3C6.52 12.91 6.26 13.84 5.95 14.36L4.8 16.27C4.09 17.45 4.58 18.76 5.88 19.2C10.19 20.64 14.84 20.64 19.15 19.2C20.36 18.8 20.89 17.37 20.23 16.27L19.08 14.36C18.78 13.84 18.52 12.91 18.52 12.3V9.41003C18.52 6.11003 15.82 3.41003 12.52 3.41003Z" stroke="#93A2B7" stroke-width="1.5" stroke-miterlimit="10" stroke-linecap="round"/>
<path d="M14.37 3.69994C14.06 3.60994 13.74 3.53994 13.41 3.49994C12.45 3.37994 11.53 3.44994 10.67 3.69994C10.96 2.95994 11.68 2.43994 12.52 2.43994C13.36 2.43994 14.08 2.95994 14.37 3.69994Z" stroke="#93A2B7" stroke-width="1.5" stroke-miterlimit="10" stroke-linecap="round" stroke-linejoin="round"/>
<path d="M15.52 19.5601C15.52 21.2101 14.17 22.5601 12.52 22.5601C11.7 22.5601 10.94 22.2201 10.4 21.6801C9.85999 21.1401 9.51999 20.3801 9.51999 19.5601" stroke="#93A2B7" stroke-width="1.5" stroke-miterlimit="10"/>
</svg>
