<svg width="25" height="25" viewBox="0 0 25 25" fill="none" xmlns="http://www.w3.org/2000/svg">
<path d="M12.66 11.37C12.56 11.36 12.44 11.36 12.33 11.37C9.95 11.29 8.06 9.34 8.06 6.94C8.06 4.49 10.04 2.5 12.5 2.5C14.95 2.5 16.94 4.49 16.94 6.94C16.93 9.34 15.04 11.29 12.66 11.37Z" stroke="#64748A" stroke-width="1.5" stroke-linecap="round" stroke-linejoin="round"/>
<path d="M7.66 15.06C5.24 16.68 5.24 19.32 7.66 20.93C10.41 22.77 14.92 22.77 17.67 20.93C20.09 19.31 20.09 16.67 17.67 15.06C14.93 13.23 10.42 13.23 7.66 15.06Z" stroke="#64748A" stroke-width="1.5" stroke-linecap="round" stroke-linejoin="round"/>
</svg>
