<svg width="18" height="18" viewBox="0 0 18 18" fill="none" xmlns="http://www.w3.org/2000/svg">
<path d="M7.20009 14.4C5.77605 14.4 4.38398 13.9777 3.19993 13.1866C2.01589 12.3954 1.09303 11.2709 0.548077 9.95532C0.00311966 8.63969 -0.139466 7.19201 0.138351 5.79535C0.416168 4.39869 1.10191 3.11577 2.10886 2.10883C3.11581 1.1019 4.39874 0.416163 5.79542 0.138349C7.1921 -0.139464 8.6398 0.00311962 9.95544 0.54807C11.2711 1.09302 12.3956 2.01586 13.1867 3.1999C13.9779 4.38393 14.4002 5.77597 14.4002 7.2C14.398 9.1089 13.6388 10.939 12.2889 12.2888C10.9391 13.6386 9.10901 14.3979 7.20009 14.4ZM7.20009 1.8C6.13206 1.8 5.08801 2.11671 4.19997 2.71007C3.31194 3.30343 2.6198 4.14679 2.21108 5.13351C1.80236 6.12023 1.69542 7.20599 1.90378 8.25349C2.11215 9.30098 2.62645 10.2632 3.38167 11.0184C4.13688 11.7736 5.09908 12.2879 6.14659 12.4962C7.1941 12.7046 8.27987 12.5977 9.2666 12.1889C10.2533 11.7802 11.0967 11.0881 11.6901 10.2001C12.2834 9.31205 12.6001 8.26802 12.6001 7.2C12.5987 5.76827 12.0293 4.39559 11.0169 3.3832C10.0045 2.37082 8.63183 1.80143 7.20009 1.8Z" fill="#E1E7EF"/>
<path d="M17.1002 18C16.8615 17.9999 16.6326 17.9051 16.4639 17.7363L12.8638 14.1363C12.6999 13.9666 12.6092 13.7392 12.6112 13.5032C12.6133 13.2673 12.7079 13.0415 12.8748 12.8747C13.0417 12.7078 13.2674 12.6131 13.5034 12.6111C13.7394 12.609 13.9667 12.6998 14.1364 12.8637L17.7365 16.4637C17.8623 16.5896 17.948 16.7499 17.9827 16.9245C18.0174 17.099 17.9996 17.28 17.9315 17.4444C17.8634 17.6088 17.7481 17.7494 17.6001 17.8483C17.4521 17.9472 17.2782 18 17.1002 18Z" fill="#E1E7EF"/>
</svg>
