<svg width="16" height="16" viewBox="0 0 16 16" fill="none" xmlns="http://www.w3.org/2000/svg">
<path d="M2.00667 7.47998V10.4733C2.00667 13.4666 3.20667 14.6666 6.2 14.6666H9.79333C12.7867 14.6666 13.9867 13.4666 13.9867 10.4733V7.47998" stroke="white" stroke-linecap="round" stroke-linejoin="round"/>
<path d="M8 8.00004C9.22 8.00004 10.12 7.00671 10 5.78671L9.56 1.33337H6.44667L6 5.78671C5.88 7.00671 6.78 8.00004 8 8.00004Z" stroke="white" stroke-linecap="round" stroke-linejoin="round"/>
<path d="M12.2067 8.00004C13.5533 8.00004 14.54 6.90671 14.4067 5.56671L14.22 3.73337C13.98 2.00004 13.3133 1.33337 11.5667 1.33337H9.53333L10 6.00671C10.1133 7.10671 11.1067 8.00004 12.2067 8.00004Z" stroke="white" stroke-linecap="round" stroke-linejoin="round"/>
<path d="M3.76 8.00004C4.86 8.00004 5.85333 7.10671 5.96 6.00671L6.10667 4.53337L6.42667 1.33337H4.39333C2.64667 1.33337 1.98 2.00004 1.74 3.73337L1.56 5.56671C1.42667 6.90671 2.41333 8.00004 3.76 8.00004Z" stroke="white" stroke-linecap="round" stroke-linejoin="round"/>
<path d="M8 11.3334C6.88667 11.3334 6.33333 11.8867 6.33333 13V14.6667H9.66667V13C9.66667 11.8867 9.11333 11.3334 8 11.3334Z" stroke="white" stroke-linecap="round" stroke-linejoin="round"/>
</svg>
